<?xml version="1.0" encoding="utf-8"?>
<!-- Generator: Adobe Illustrator 23.0.5, SVG Export Plug-In . SVG Version: 6.00 Build 0)  -->
<svg version="1.1" id="Layer_1" xmlns="http://www.w3.org/2000/svg" xmlns:xlink="http://www.w3.org/1999/xlink" x="0px" y="0px"
	 viewBox="0 0 1024 1024" style="enable-background:new 0 0 1024 1024;" xml:space="preserve">
<style type="text/css">
	.st0{fill-rule:evenodd;clip-rule:evenodd;fill:#656979;}
	.st1{fill:none;stroke:#656979;}
	.st2{fill:#656979;stroke:#656979;}
	.st3{fill:#656979;}
</style>
<g>
	<g>
		<g transform="translate(0 1)">
			<ellipse class="st0" cx="521.51" cy="538.35" rx="351.71" ry="76.94"/>
			<g>
				<path class="st1" d="M775.72,318.24L664.2,191.83c-5.35-8.62-13.17-13.83-21.4-13.83H403.05c-8.23,0-16.05,5.21-21.4,13.82
					L270.14,318.25V419.8h505.58V318.24z"/>
				<path class="st2" d="M621.84,353.92c0-18.09,10.8-33.02,24.19-33.03h129.68v199.34c0,23.33-14.51,42.46-32.42,42.46H302.56
					c-17.92,0-32.42-19.14-32.42-42.46V320.88h118.69c13.39,0,24.19,14.91,24.19,33v0.25c0,18.09,10.92,32.7,24.3,32.7h160.23
					c13.38,0,24.3-14.74,24.3-32.83V353.92z"/>
			</g>
		</g>
	</g>
	<g>
		<path class="st3" d="M89.29,743.13v-87.82h28.54c26.24,0,43.97,17.73,43.97,43.97c0,26.11-17.49,43.85-43.48,43.85H89.29z
			 M101.19,666.24v65.83h16.28c19.56,0,31.94-12.63,31.94-32.79c0-20.41-12.39-33.04-32.43-33.04H101.19z"/>
		<path class="st3" d="M172.13,726.61c0-10.93,8.14-17.73,22.11-18.83l18.7-1.46v-1.7c0-9.96-5.95-13.48-13.97-13.48
			c-9.6,0-15.06,4.25-15.06,11.42h-9.96c0-12.39,10.2-20.53,25.51-20.53c14.7,0,24.66,7.77,24.66,23.81v37.29h-9.72l-1.21-9.6
			c-3.04,6.8-11.17,11.05-20.77,11.05C179.66,744.59,172.13,737.42,172.13,726.61z M213.06,717.5v-3.16l-15.18,1.21
			c-10.08,0.97-14.21,4.86-14.21,10.69c0,6.32,4.62,9.47,12.02,9.47C206.5,735.72,213.06,728.67,213.06,717.5z"/>
		<path class="st3" d="M244.28,743.13v-49.8h-11.66v-9.59h11.66v-18.58h11.42v18.58h11.66v9.59h-11.66v49.8H244.28z"/>
		<path class="st3" d="M273.91,726.61c0-10.93,8.14-17.73,22.11-18.83l18.71-1.46v-1.7c0-9.96-5.95-13.48-13.97-13.48
			c-9.6,0-15.06,4.25-15.06,11.42h-9.96c0-12.39,10.2-20.53,25.51-20.53c14.7,0,24.66,7.77,24.66,23.81v37.29h-9.72l-1.21-9.6
			c-3.04,6.8-11.17,11.05-20.77,11.05C281.44,744.59,273.91,737.42,273.91,726.61z M314.85,717.5v-3.16l-15.18,1.21
			c-10.08,0.97-14.21,4.86-14.21,10.69c0,6.32,4.62,9.47,12.02,9.47C308.29,735.72,314.85,728.67,314.85,717.5z"/>
		<path class="st3" d="M376.79,743.13v-87.82h11.9l44.94,67.9v-67.9h11.9v87.82h-11.9l-44.94-67.9v67.9H376.79z"/>
		<path class="st3" d="M491.09,682.16c17.73,0,30.85,12.87,30.85,31.21s-13.12,31.22-30.85,31.22c-17.85,0-30.97-12.88-30.97-31.22
			S473.23,682.16,491.09,682.16z M491.09,734.38c11.42,0,19.43-8.62,19.43-21.01s-8.02-21.01-19.43-21.01
			c-11.54,0-19.43,8.62-19.43,21.01S479.55,734.38,491.09,734.38z"/>
		<path class="st3" d="M539.31,743.13v-49.8h-11.66v-9.59h11.66v-18.58h11.42v18.58h11.66v9.59h-11.66v49.8H539.31z"/>
		<path class="st3" d="M619.59,705.84v37.29h-11.9v-87.82h52.96v10.93h-41.05v28.79h34.5v10.81H619.59z"/>
		<path class="st3" d="M695.63,682.16c17.73,0,30.85,12.87,30.85,31.21s-13.12,31.22-30.85,31.22c-17.85,0-30.97-12.88-30.97-31.22
			S677.77,682.16,695.63,682.16z M695.63,734.38c11.42,0,19.43-8.62,19.43-21.01s-8.02-21.01-19.43-21.01
			c-11.54,0-19.43,8.62-19.43,21.01S684.09,734.38,695.63,734.38z"/>
		<path class="st3" d="M790,683.73v59.39h-10.2l-1.21-8.99c-3.4,6.19-11.3,10.45-20.04,10.45c-13.85,0-21.62-9.35-21.62-23.93
			v-36.92h11.42v33.16c0,12.75,5.47,17.61,14.21,17.61c10.45,0,16.15-6.68,16.15-19.43v-31.34H790z"/>
		<path class="st3" d="M806.52,743.13v-59.39h10.32l1.21,9.11c3.77-6.8,11.3-10.81,19.68-10.81c15.67,0,22.83,9.6,22.83,24.78v36.32
			h-11.42v-33.77c0-12.02-5.59-16.88-14.33-16.88c-10.69,0-16.88,7.65-16.88,19.19v31.46H806.52z"/>
		<path class="st3" d="M872.48,713.61c0-18.22,10.57-31.58,28.18-31.58c9.11,0,16.76,4.01,20.77,11.3v-39.6h11.3v89.39h-10.2
			l-0.97-10.81c-3.89,8.14-11.9,12.27-21.38,12.27C882.92,744.59,872.48,731.71,872.48,713.61z M921.3,713.25
			c0-12.15-7.17-20.89-18.83-20.89s-18.46,8.75-18.46,20.89c0,12.27,6.8,21.01,18.46,21.01S921.3,725.64,921.3,713.25z"/>
	</g>
</g>
</svg>
